<svg xmlns="http://www.w3.org/2000/svg" xmlns:xlink="http://www.w3.org/1999/xlink" version="1.1" x="0px" y="0px" viewBox="0 0 100 125" style="enable-background:new 0 0 100 100;" xml:space="preserve"><path d="M15.876,23.413c0.253,0.058,0.17-0.284,0.193-0.441c0.01-0.072,0.002-0.184,0.03-0.249c0.043-0.098,0.228-0.015,0.152-0.214  c-0.258,0.02-0.718,0.547-0.457,0.766L15.876,23.413z"/><path d="M85.961,39.084c0.261,0.022,0.476-0.26,0.672-0.387c0.183-0.119,0.392-0.156,0.588-0.226  c0.218-0.078,0.436-0.129,0.486-0.371c0.026-0.126,0.031-0.168,0.112-0.274c0.077-0.1,0.235-0.193,0.255-0.322  c-0.16-0.065-0.205,0.053-0.303,0.155c-0.113,0.118-0.237,0.171-0.383,0.237c-0.14,0.063-0.249,0.148-0.4,0.163  c-0.134,0.013-0.227,0.003-0.356,0.055c-0.232,0.093-0.487,0.252-0.621,0.465c-0.122,0.193-0.41,0.624,0.051,0.436L85.961,39.084z"/><path d="M88.125,37.927c0.135-0.058,0.477-0.273,0.481-0.418c-0.12-0.002-0.331,0.088-0.43,0.149  c-0.102,0.064-0.304,0.4-0.068,0.268L88.125,37.927L88.125,37.927z"/><path d="M62.799,28.49c0.08-0.171,0.39-0.417,0.565-0.499c0.083-0.039,0.68-0.16,0.554,0.087c-0.021,0.041-0.218,0.059-0.269,0.091  c-0.139,0.089-0.121,0.219-0.209,0.336c-0.167,0.222-0.414,0.163-0.551-0.051L62.799,28.49z"/><path d="M64.844,33.079c0.045-0.138,0.318-0.701,0.464-0.71c0.079,0.212-0.034,0.351-0.122,0.532  c-0.045,0.093-0.138,0.422-0.288,0.231L64.844,33.079z"/><path d="M8.439,67.988c0.585-0.038,0.468,0.394,0.845,0.686c0.112-0.187,0.308-0.165,0.488-0.128c0.002-0.2-0.3-0.322-0.42-0.495  c-0.052-0.075,0.009-0.227-0.064-0.278c-0.1-0.071-0.222,0.02-0.313-0.03c-0.112-0.062-0.269-0.332-0.394-0.313  c-0.244,0.036-0.175,0.36-0.177,0.523L8.439,67.988z"/><path d="M9.53,72.283c0.181,0.094,0.751,0.814,0.961,0.245c0.219-0.594-0.652-0.354-0.89-0.386L9.53,72.283z"/><path d="M16.958,77.246c0.013-0.07,0.038-0.174,0.087-0.233c0.101-0.12,0.176,0.021,0.25-0.053c0.133-0.133,0.063-0.363,0.321-0.318  c-0.048-0.047-0.063-0.12-0.095-0.157c0.307,0.06,0.348-0.177,0.141-0.358c-0.218-0.191-0.293-0.054-0.459,0.097  c-0.05-0.219-0.189-0.21-0.246-0.036c-0.044,0.132,0.117,0.258,0.039,0.422c-0.188-0.103-0.003-0.491-0.32-0.354  c-0.204,0.088-0.16,0.451-0.279,0.6c0.294-0.14,0.389,0.104,0.491,0.32L16.958,77.246z"/><path d="M17.662,75.873c0.196,0.03,0.494-0.04,0.464-0.277c-0.052,0.011-0.125-0.016-0.178-0.008  c0.014-0.099-0.006-0.235,0.001-0.312c-0.164,0.082-0.604,0.405-0.392,0.527L17.662,75.873z"/><path d="M6.315,79.903c0.136,0.015,0.537-0.146,0.304-0.294c-0.14-0.089-0.481,0.138-0.388,0.294H6.315z"/><path d="M6.842,79.565c0.138,0.016,0.226-0.119,0.208-0.245c-0.113-0.041-0.314,0.084-0.208,0.182V79.565z"/><path d="M7.79,79.65c0.362-0.107,0.296-0.322,0.313-0.63c-0.137-0.027-0.279,0.058-0.391,0.123c0.074,0.048,0.139,0.114,0.118,0.209  c-0.272-0.053-0.27,0.288-0.062,0.256L7.79,79.65z"/><path d="M8.527,79.144c0.494,0.088-0.074-0.453-0.063-0.063L8.527,79.144z"/><path d="M9.644,78.954c0.207,0.002,0.48-0.016,0.654-0.128c0.108-0.07,0.128-0.038,0.125-0.208c-0.002-0.159,0-0.219-0.179-0.233  c-0.104-0.008-0.221,0.053-0.327,0.059c-0.203,0.012-0.129-0.022-0.294,0.114c-0.069,0.057-0.279,0.135-0.275,0.227  c0.005,0.12,0.183,0.116,0.275,0.105L9.644,78.954z"/><path d="M28.3,75.872c0.1,0.061,0.085,0.172,0.127,0.27c0.046,0.11,0.13,0.189,0.198,0.283c0.123,0.169,0.275,0.403,0.501,0.43  c0.004-0.165-0.016-0.234-0.088-0.376c-0.057-0.112-0.072-0.242-0.129-0.357c-0.057-0.116-0.163-0.3-0.274-0.365  c-0.075-0.044-0.361-0.112-0.267,0.064L28.3,75.872z"/><path d="M28.131,75.585c-0.017-0.046-0.011-0.088-0.045-0.133c0.142-0.007,0.517,0.134,0.535-0.033  c0.022-0.209-0.429-0.214-0.539-0.333c-0.115-0.125-0.018-0.201-0.222-0.195c-0.053,0.002-0.215,0.044-0.244,0.088  c-0.108,0.161,0.237,0.509,0.363,0.589L28.131,75.585z"/><path d="M29.077,75.957c-0.031-0.253,0.224-0.36,0.157-0.608c-0.038-0.14-0.148-0.184-0.226-0.287  c-0.061-0.081-0.068-0.206-0.158-0.272c-0.054-0.039-0.201-0.086-0.244-0.025c-0.068,0.096,0.083,0.211,0.126,0.271  c0.166,0.226,0.169,0.473,0.211,0.735L29.077,75.957z"/><path d="M29.837,76.717c0.113,0.001,0.081,0.091,0.135,0.152c0.038,0.043,0.125,0.076,0.153,0.118  c0.072,0.107-0.037,0.286,0.027,0.372c0.029,0.039,0.128,0.014,0.175,0.038c0.096,0.051,0.056,0.073,0.101,0.13  c0.096,0.122,0.22,0.206,0.339,0.313c0.103,0.092,0.269,0.238,0.418,0.241c0.222,0.005,0.126-0.122,0-0.217  c-0.163-0.122-0.106-0.214-0.207-0.363c-0.035-0.051-0.115-0.081-0.16-0.126c-0.075-0.075-0.059-0.096-0.106-0.169  c-0.086-0.133-0.197-0.276-0.347-0.338c-0.087-0.036-0.12-0.014-0.192-0.076c-0.074-0.064-0.057-0.173-0.201-0.144L29.837,76.717z"/><path d="M29.415,75.973c0.139,0.053,0.222,0.343,0.371,0.338c0.139-0.005,0.029-0.097,0.096-0.126  c0.071-0.031,0.197,0.055,0.278,0.065c0.042-0.167-0.495-0.585-0.627-0.345L29.415,75.973z"/><path d="M29.286,76.374c0.058,0.072,0.091,0.047,0.181,0.076c0.065-0.144-0.087-0.37-0.252-0.334  C29.195,76.222,29.198,76.307,29.286,76.374L29.286,76.374z"/><path d="M36.12,74.46c0.156-0.093,0.355-0.131,0.349-0.348c-0.308-0.168-0.417,0.164-0.511,0.375L36.12,74.46z"/><path d="M37.175,74.081c0.165,0.075,0.405,0.252,0.601,0.185c0.207-0.071,0.308-0.443,0.237-0.646  c-0.155-0.451-1.112,0.105-0.893,0.354L37.175,74.081z"/><path d="M40.422,75.164c0.054,0.129,0.109,0.282,0.217,0.378c0.183,0.163,0.148,0.054,0.35,0.081  c0.218,0.029,0.766,0.333,0.705-0.145c-0.038-0.294-0.16-0.066-0.334-0.18c-0.115-0.076-0.058-0.308-0.207-0.393  c-0.224-0.128-0.171,0.068-0.313,0.122c-0.122,0.046-0.271,0.015-0.391,0.055L40.422,75.164z"/><path d="M42.641,76.192c0.249-0.007,0.483,0.068,0.731,0.081c0.366,0.019,0.376,0.023,0.458-0.3c-0.206-0.07-0.476-0.01-0.699-0.023  c-0.305-0.018-0.464-0.18-0.57,0.188L42.641,76.192z"/><path d="M42.992,76.706c0.096,0.002,0.363,0.49,0.527,0.174c0.126-0.243-0.318-0.322-0.472-0.309L42.992,76.706z"/><path d="M43.912,76.679c0.083,0.256,0.233,0.119,0.379,0.235c0.131,0.105,0.108,0.313,0.27,0.416  c0.213,0.135,0.813-0.011,0.895-0.246c0.096-0.273-0.105-0.273-0.271-0.323c-0.173-0.052-0.331-0.168-0.489-0.191  c-0.194-0.029-0.264,0.065-0.459-0.024c-0.145-0.066-0.263-0.253-0.352,0.053L43.912,76.679z"/><path d="M43.885,77.707c0.135,0.031,0.398-0.212,0.15-0.295C43.859,77.352,43.657,77.655,43.885,77.707z"/><path d="M46.158,81.278c0.221-0.033,0.376-0.579,0.568-0.725c0.191-0.146,0.589,0.001,0.839-0.059  c0.224-0.054,0.575-0.373,0.41-0.65c-0.069-0.117-0.349-0.21-0.452-0.353c-0.096-0.132-0.141-0.26-0.248-0.37  c-0.224-0.23-0.33-0.467-0.651-0.569c-0.136-0.043-0.312-0.058-0.44-0.119c-0.128-0.061-0.303-0.331-0.48-0.288  c-0.372,0.091,0.141,0.472,0.101,0.688c-0.055,0.293-0.632,0.434-0.535,0.722c0.046,0.136,0.267,0.242,0.341,0.397  c0.064,0.134,0.09,0.315,0.087,0.466c-0.005,0.213-0.073,0.27,0.014,0.469c-0.018-0.041,0.195,0.258,0.153,0.224  c0.074,0.059,0.116,0.115,0.239,0.086L46.158,81.278z"/><path d="M82.758,30.642c-0.218,0-0.525,0.359-0.658,0.515c-0.17,0.199-0.309,0.452-0.418,0.687  c-0.121,0.258-0.159,0.426-0.413,0.576c-0.084,0.05-0.329,0.175-0.363,0.271c-0.064,0.183,0.1,0.115,0.214,0.155  c-0.002,0.013-0.004,0.026-0.007,0.038c0.236-0.015,0.112,0.112,0.062,0.23c-0.083,0.194-0.004,0.098,0.053,0.284  c0.125,0.22,0.268,0.408-0.001,0.534c-0.128,0.06-0.14,0.021-0.248,0.165c-0.092,0.122-0.175,0.206-0.302,0.288  c-0.359,0.232-1.035,0.535-1.46,0.365L79.2,34.734c-0.215,0.009-0.415-0.114-0.64-0.089c-0.277,0.031-0.482,0.238-0.746,0.302  c-0.139,0.034-0.274,0.045-0.393,0.134c-0.154,0.114-0.116,0.151-0.043,0.302c0.07,0.145,0.079,0.284,0.147,0.418  c0.076,0.149,0.147,0.2,0.004,0.355l-0.036,0.089c-0.108,0.332-0.558,0.657-0.819,0.872c-0.275,0.226-0.575,0.436-0.874,0.626  c-0.335,0.213-0.64,0.474-0.98,0.673c-0.358,0.21-0.697,0.373-1.005,0.663c-0.186,0.175-0.276,0.123-0.506,0.178  c-0.188,0.045-0.348,0.159-0.529,0.226c-0.108-0.006-0.144-0.122-0.236-0.144c-0.098-0.023-0.152,0.019-0.246,0.059  c-0.148,0.062-0.283,0.105-0.44,0.027c-0.022-0.011-0.097-0.036-0.108-0.052c-0.024-0.038,0.018-0.099,0.016-0.103  c-0.053-0.097-0.005-0.057-0.154-0.108c-0.154-0.053-0.386-0.195-0.345-0.39l0.018,0.036c-0.039-0.255,0.241-0.471,0.267-0.715  c0.018-0.177-0.02-0.228,0.111-0.361c0.112-0.114,0.152-0.195,0.23-0.327c0.052-0.088,0.074-0.023,0.104-0.145  c0.013-0.053-0.026-0.148-0.001-0.195c0.119-0.219,0.125,0.098,0.251,0.072c0.157-0.032,0.251-0.742,0.195-0.891l-0.036-0.071  c-0.028-0.317-0.184-0.677-0.307-0.961c-0.068-0.158-0.028-0.341-0.09-0.49c-0.043-0.103-0.285-0.375-0.389-0.444  c-0.162-0.108-0.348,0.042-0.49,0.116c-0.189,0.1-0.267,0.224-0.389,0.402c-0.072,0.105-0.111,0.342-0.184,0.418  c-0.061,0.064-0.31,0.084-0.393,0.046c-0.252-0.115-0.114-0.347-0.089-0.523c0.016-0.109-0.04-0.193,0.016-0.291  c0.036-0.062,0.192-0.184,0.25-0.247l0.053-0.036c0.01-0.181,0.17-0.161,0.265-0.266c0.09-0.099,0.073-0.26,0.094-0.379  c0.036-0.202,0.167-0.6,0.014-0.76l-0.018,0.018c-0.045-0.135-0.415-0.415-0.233-0.553c0.096-0.073,0.288,0.075,0.125-0.133  c-0.07-0.089-0.208-0.1-0.276-0.195c-0.057-0.08-0.031-0.202-0.127-0.255c-0.06-0.034-0.222-0.001-0.291-0.002  c-0.163-0.004-0.168-0.051-0.3-0.108c-0.127-0.055-0.171,0.003-0.286-0.123h-0.018c-0.098-0.057-0.144-0.189-0.259-0.23  c-0.102-0.036-0.246,0.014-0.354-0.001c-0.256-0.037-0.437-0.176-0.628,0.111c-0.16,0.241,0.3,0.472,0.126,0.584  c-0.102,0.066-0.232-0.017-0.349,0.092c-0.089,0.082-0.14,0.191-0.146,0.299c-0.014,0.254,0.047,0.426-0.062,0.674  c-0.158,0.36-0.285,0.27-0.285-0.079c0-0.074,0.042-0.345-0.003-0.397c-0.126-0.146-0.131,0.178-0.168,0.244  c-0.132,0.239-0.406,0.104-0.488,0.374c-0.026,0.084-0.008,0.112-0.062,0.189c-0.043,0.061-0.11,0.042-0.135,0.128  c-0.024,0.083,0.037,0.278,0.037,0.379c0,0.34-0.043,0.626-0.249,0.906l-0.053,0.107c-0.011,0.126,0.067,0.236,0.085,0.357  c0.018,0.118-0.026,0.201-0.041,0.31c-0.036,0.265,0.151,0.41,0.255,0.632c0.206,0.441,0.343,0.909,0.342,1.396  c-0.001,0.282-0.019,0.52-0.089,0.792l-0.018,0.018c0.048,0.438-0.492,1.082-0.811,1.325c-0.151,0.115-0.568,0.22-0.75,0.135  c-0.256-0.12-0.199-0.499-0.293-0.716c-0.075-0.172-0.238-0.261-0.32-0.423c-0.064-0.128-0.049-0.246-0.049-0.392v-0.018  c0-0.232,0.073-0.439,0.017-0.658c-0.031-0.121-0.029-0.233-0.052-0.353c-0.023-0.119-0.112-0.203-0.15-0.313  c-0.175-0.505,0.246-0.953,0.175-1.433c-0.04-0.274-0.098-0.529,0.153-0.729l0.018-0.125c0-0.33,0.043-0.561,0.156-0.873  c0.03-0.083,0.144-0.268,0.113-0.355c-0.036-0.1-0.271-0.127-0.37-0.09c-0.195,0.075-0.346,0.645-0.615,0.621  c-0.279-0.026,0.078-0.645,0.183-0.748c0.162-0.161,0.275-0.215,0.356-0.455c0.056-0.167,0.155-0.291,0.213-0.449l0.018-0.018  c-0.007-0.201,0.057-0.408,0.146-0.587c0.044-0.087,0.13-0.145,0.173-0.222c0.042-0.076,0.029-0.168,0.09-0.231  c0.027,0.094,0.049,0.206,0.138,0.256c0.08-0.127,0.328-0.389,0.468-0.42c0.073,0.216-0.148,0.355-0.075,0.581  c0.227-0.07,0.246-0.429,0.401-0.578c0.148-0.142,0.373-0.215,0.575-0.222c0.104-0.003,0.245,0.028,0.344-0.001  c0.116-0.033,0.192-0.149,0.305-0.196c0.191-0.08,0.42-0.026,0.6,0.055h0.018c0.12,0.022,0.325,0.178,0.441,0.142  c0.167-0.051-0.013-0.282,0.222-0.32c0.197-0.032,0.928,0.29,1.022,0.021c-0.086-0.039-0.139-0.057-0.208-0.131  c-0.031-0.033-0.031-0.102-0.063-0.131c-0.047-0.042-0.106-0.031-0.152-0.066c-0.151-0.117-0.065-0.203-0.134-0.368  c-0.11-0.26-0.248-0.066-0.448-0.072c-0.176-0.005-0.305-0.151-0.502-0.161c-0.317-0.016-0.096-0.106-0.18-0.315  c-0.093-0.229-0.385-0.103-0.546-0.053c-0.163,0.051-0.333,0.118-0.5,0.137c-0.353,0.041-0.66-0.006-1.004,0.137  c-0.234,0.097-0.355,0.367-0.611,0.379c-0.208,0.01-0.554-0.108-0.734,0.017H64.56c-0.01-0.181-0.103-0.346-0.241-0.444  c-0.14-0.1-0.365-0.276-0.542-0.286c-0.179-0.01-0.317,0.11-0.484,0.148c-0.261,0.059-0.227-0.099-0.227-0.308v0.018  c-0.012-0.089-0.192-0.322-0.266-0.357c-0.174-0.083-0.238,0.171-0.374,0.251c-0.13,0.077-0.302,0.144-0.441,0.209  c-0.151,0.071-0.265,0.182-0.414,0.253c-0.138,0.065-0.294,0.063-0.432,0.124c-0.17,0.075-0.269,0.236-0.441,0.322  c-0.363,0.181-0.586,0.036-0.947,0.074c-0.117,0.012-0.145,0.092-0.21-0.035c-0.033-0.064,0.013-0.173,0.033-0.231  c0.017-0.051,0.147-0.215,0.12-0.253c-0.038-0.055-0.192,0.052-0.241,0.071l-0.142,0.036c-0.205,0.023-1.125,0.548-1.278,0.249  c-0.107-0.209,0.411-0.442,0.526-0.532c0.257-0.202,0.402-0.454,0.583-0.716c0.19-0.274,0.373-0.475,0.685-0.62h0.018  c0.229-0.152,0.397-0.381,0.667-0.471c0.193-0.064,0.423-0.038,0.605-0.133c0.057-0.03,0.248-0.165,0.184-0.251  c-0.052-0.071-0.228,0.03-0.304,0.02c-0.162-0.022-0.216-0.193-0.351-0.258c-0.127-0.06-0.282-0.016-0.41,0.013  c-0.259,0.059-0.392,0.113-0.64,0.039c-0.271-0.082-0.456-0.039-0.693,0.117c-0.08,0.053-0.204,0.178-0.312,0.142  c-0.121-0.039-0.049-0.179-0.169-0.246c-0.046-0.026-0.119,0.016-0.167-0.005c-0.065-0.029-0.093-0.116-0.16-0.15  c-0.066-0.033-0.135-0.007-0.199-0.036c-0.072-0.032-0.098-0.119-0.186-0.132c-0.1-0.015-0.138,0.075-0.232,0.076  c-0.127,0.001-0.107-0.066-0.188-0.148c-0.132-0.135-0.233-0.125-0.416-0.124c-0.266,0.001-0.232-0.074-0.41-0.231  c-0.108-0.095-0.26-0.041-0.356-0.125l-0.107,0.089c-0.097-0.002-0.186,0.027-0.285,0.018c-0.122-0.011-0.183-0.068-0.289-0.106  c-0.105-0.038-0.227-0.03-0.333-0.071c-0.137-0.053-0.192-0.133-0.348-0.143c-0.128-0.008-0.233,0.07-0.328-0.054  c-0.03-0.039,0.011-0.118-0.025-0.168c-0.038-0.052-0.108-0.034-0.145-0.065c-0.105-0.088-0.124-0.267-0.283-0.237  c-0.127,0.024-0.172,0.209-0.327,0.201c0.006-0.156-0.042-0.306-0.233-0.282c-0.774,0.025-1.513,0.018-2.295,0.018  c-18.013-0.662-26.554-3.096-34.548-4.895c-0.028,0.208,0.075,0.288,0.144,0.462c0.091,0.23,0.026,0.237-0.035,0.453  c-0.054,0.19,0.006,0.322,0.022,0.487c0.017,0.176-0.005,0.273,0.004,0.447c0.004,0.081,0.118,0.18,0.087,0.269  c-0.042,0.122-0.147,0.057-0.197,0.114c-0.145,0.166-0.143,0.282-0.164,0.492c-0.02,0.203-0.035,0.307-0.137,0.488  c-0.119,0.212-0.18,0.207-0.378,0.279c-0.113,0.041-0.474,0.248-0.533,0.058c-0.049-0.157,0.292-0.301,0.303-0.485  c-0.144-0.007-0.434,0.11-0.41-0.147c0.011-0.122,0.144-0.098,0.195-0.17c0.063-0.09,0.072-0.202,0.134-0.295  c0.228-0.342,0.584-0.189,0.512-0.713c-0.021,0.025-0.053,0.047-0.076,0.07c-0.238-0.309-0.702-0.392-1.091-0.513  c-0.283-0.088-0.416-0.128-0.641-0.339c-0.162-0.152-0.333-0.427-0.519-0.529c-0.138,0.139-0.337,0.641-0.329,0.84  c0.006,0.149,0.142,0.311,0.163,0.469c0.022,0.164-0.047,0.281-0.055,0.433c-0.015,0.266,0.117,0.421,0.194,0.658  c0.06,0.184-0.069,0.664,0.167,0.678c-0.06,0.076-0.267,0.065-0.302,0.122c-0.093,0.151,0.098,0.23,0.134,0.327  c0.097,0.26-0.021,0.392-0.219,0.585v0.028c-0.03,0.027-0.055,0.071-0.075,0.106c0.452,0.18,0.734,0.332,1.058,0.722  c-0.2,0.026-0.404-0.234-0.598-0.272c-0.237-0.047-0.395-0.013-0.468,0.193c-0.033,0.094-0.001,0.227-0.027,0.324  c-0.03,0.113-0.111,0.19-0.151,0.291c-0.09,0.224-0.172,0.441-0.263,0.672l-0.028,0.138c0.009,0.323-0.212,0.626-0.346,0.907  c-0.157,0.33-0.292,0.687-0.421,1.032c-0.123,0.33-0.2,0.653-0.36,0.978c-0.165,0.335-0.397,0.605-0.571,0.928  c-0.215,0.399-0.392,0.576-0.393,1.051l-0.028,0.138c-0.001,0.359-0.249,0.683-0.194,1.034c0.031,0.202,0.12,0.279,0.099,0.468  c-0.017,0.154-0.051,0.284-0.042,0.471c0.022,0.45-0.179,0.696-0.282,1.114c-0.051,0.208-0.053,0.353-0.17,0.532  c-0.12,0.183-0.314,0.288-0.443,0.469c-0.254,0.356-0.036,0.947,0.152,1.303l0.028,0.083c0.251,0.286,0.169,0.593,0.056,0.908  c-0.113,0.315,0.02,0.515-0.002,0.838c-0.008,0.122-0.129,0.242-0.077,0.403c0.046,0.143,0.208,0.306,0.297,0.43  c0.202,0.283,0.236,0.645,0.441,0.941v0.028c0.095,0.083,0.184,0.181,0.22,0.303h-0.028c-0.12,0.01-0.21-0.079-0.277-0.164  c-0.022,0.093-0.054,0.187-0.107,0.263c0.356-0.039,0.523,0.525,0.713,0.746c0.174-0.155-0.009-0.339,0.083-0.515  c0.104-0.199,0.176-0.02,0.364,0.002c0.086,0.01,0.141-0.085,0.248-0.059c0.104,0.025,0.114,0.123,0.213,0.168  c0.167,0.076,0.566-0.018,0.574,0.215c-0.382,0.041-0.75,0.002-1.098-0.159c-0.09,0.292-0.011,0.713,0.047,1.012  c-0.193-0.085-0.36-0.36-0.485-0.521c-0.242,0.155-0.05,0.308-0.053,0.512c-0.002,0.172-0.141,0.342-0.142,0.527  c-0.002,0.585,0.512,0.326,0.69,0.694l0.055,0.11c0.071,0.393-0.347,0.54-0.33,0.908c0.012,0.249,0.135,0.289,0.237,0.498  c0.077,0.157,0.063,0.332,0.114,0.494c0.106,0.339,0.237,0.719,0.474,1.009c0.157,0.192,0.166,0.244,0.247,0.448  c0.061,0.152,0.247,0.296,0.221,0.467l-0.028,0.083c0.042,0.35-0.133,0.562-0.124,0.908c0.007,0.255-0.017,0.236,0.232,0.316  c0.191,0.062,0.242,0.104,0.399,0.222c0.167,0.126,0.194,0.107,0.414,0.121c0.248,0.016,0.226,0.056,0.426,0.194  c0.145,0.1,0.283,0.147,0.412,0.274c0.122,0.119,0.161,0.268,0.268,0.391c0.112,0.129,0.335,0.283,0.496,0.331  c0.221,0.065,0.425,0.017,0.466,0.327c-0.321,0.09-0.235,0.201,0.019,0.299c0.2,0.078,0.353,0.111,0.54,0.275h0.028  c0.553,0.186,1.11,1.311,0.971,1.871c-0.111,0.446-0.196,0.641,0.342,0.714c0.33,0.044,0.647,0.147,0.975,0.192  c0.424,0.059,0.842,0.004,1.26,0.111c0.443,0.002,1.455,0.16,1.293,0.507l5.996,3.41l4.574,0.626l0.113-0.903l2.74,0.404  c0.606-0.017,0.326,0.37,0.633,0.717c0.289,0.327,0.709,0.591,0.937,0.954c0.15,0.239,0.113,0.335,0.381,0.472  c0.234,0.12,0.291,0.137,0.435,0.367c0.126,0.2,0.151,0.353,0.226,0.56c0.075,0.205,0.305,0.275,0.359,0.473  c0.053,0.194-0.06,0.429,0.019,0.646c0.084,0.23,0.283,0.43,0.476,0.57h0.028c0.119,0.133,0.173,0.292,0.277,0.434  c0.142,0.193,0.28,0.162,0.46,0.272c0.162,0.099,0.202,0.273,0.336,0.388c0.14,0.119,0.285,0.092,0.461,0.149  c0.231,0.074,0.232,0.151,0.419-0.004c0.071-0.059,0.074-0.165,0.17-0.229c0.085-0.058,0.178,0.016,0.252-0.073  c0.059-0.072,0.086-0.394,0.129-0.497c0.05-0.12,0.096-0.341,0.184-0.44c0.091-0.103,0.389-0.248,0.508-0.301  c0.301-0.134,0.258,0.077,0.545,0.109h0.028c0.294-0.01,0.817,0.039,1.074,0.171c0.215,0.111,0.203,0.337,0.385,0.491  c0.15,0.126,0.337,0.192,0.487,0.329c0.304,0.276,0.436,0.709,0.571,1.067c0.066,0.176,0.157,0.357,0.239,0.522  c0.081,0.163,0.142,0.502,0.269,0.611l0.028,0.055c0.29,0.23,0.554,0.445,0.66,0.804c0.06,0.204-0.01,0.323,0.186,0.483  c0.125,0.102,0.388,0.115,0.449,0.281c0.046,0.125-0.083,0.304-0.059,0.456c0.019,0.117,0.077,0.326,0.115,0.443  c0.068,0.207,0.234,0.365,0.298,0.559c0.055,0.166,0.049,0.313,0.165,0.467l0.083,0.11c0.165,0.141,0.298,0.168,0.474,0.274  c0.192,0.116,0.234,0.241,0.448,0.303c0.345,0.1,0.669,0.197,1.025,0.275c0.319,0.07,0.642,0.461,0.967,0.443  c0.558-0.032,0.186-0.647,0.054-0.909c-0.122-0.242-0.177-0.31-0.183-0.572c-0.004-0.209-0.081-0.423-0.063-0.639v-0.028  c-0.038-0.23,0.138-0.332,0.253-0.495c-0.064-0.063-0.443-0.119-0.464-0.191c-0.058-0.202,0.328-0.109,0.428-0.168  c0.111-0.065,0.236-0.307,0.237-0.45c0.002-0.23-0.13-0.247-0.255-0.43c0.166-0.172,0.379,0.012,0.55-0.085  c0.278-0.158,0.014-0.286-0.068-0.439c0.272-0.153,0.464-0.007,0.611-0.349c0.072-0.166-0.084-0.203,0.121-0.252  c0.08-0.02,0.277,0.121,0.401,0.109h0.028c0.212,0.01,0.421-0.231,0.141-0.23c0.027-0.159-0.48-0.357-0.247-0.537  c0.065-0.051,0.609,0.071,0.725,0.082c0.54,0.053,0.944,0.006,1.389-0.332l0.028-0.055c0.163-0.113,0.284-0.261,0.408-0.413  c0.05-0.061,0.054-0.122,0.114-0.182c0.079-0.079,0.163-0.025,0.22-0.146c0.076-0.161-0.059-0.325-0.115-0.44  c-0.141-0.288-0.155-0.177,0.09-0.304c0.109-0.057,0.319-0.198,0.382-0.109c0.135,0.19-0.132,0.242,0.095,0.384  c0.261,0.163,0.819-0.091,1.033-0.254c0.188-0.144,0.13-0.244,0.229-0.454c0.144-0.307,0.289-0.178,0.221,0.135  c0.088,0.025,0.277,0.059,0.368,0.004c0.17-0.104,0.07-0.142,0.13-0.311c0.167-0.464,0.344-0.027,0.216,0.243  c0.141,0.083,0.285,0.183,0.459,0.17h0.028c0.597,0,1.144,0.461,1.676,0.188c-0.12-0.367-0.184-0.3,0.172-0.351  c0.215-0.031,0.235-0.079,0.382-0.009c0.018,0.009-0.022,0.108,0.013,0.129c0.054,0.033,0.121-0.011,0.175,0.015  c0.047,0.023,0.12-0.021,0.169,0.004c0.066,0.033,0.071,0.161,0.113,0.184c0.108,0.058,0.186,0.021,0.297,0.06  c0.122,0.043,0.47,0.296,0.417,0.465c-0.124-0.076-0.307-0.249-0.279,0.04c0.023,0.241,0.185,0.173,0.353,0.203  c0.14,0.025,0.249,0.091,0.383,0.114c0.058,0.01,0.111-0.098,0.2-0.082c0.065,0.012,0.138,0.139,0.216,0.161  c0.14-0.209,0.032-0.564,0.417-0.489v0.028c0.184-0.005,0.36,0.691,0.604,0.209c0.05-0.098-0.023-0.279,0.001-0.388  c0.053-0.244,0.128-0.129,0.275-0.322c0.125,0.099,0.15,0.27,0.289,0.39c0.038,0.033,0.147,0.069,0.201,0.112  c0.05,0.039,0.075,0.132,0.132,0.179c0.188,0.158,0.756,0.314,0.838,0.054c0.132-0.419-0.597-0.494-0.827-0.593  c-0.422-0.182-0.44-0.479,0.056-0.618c0.213-0.06,0.329-0.07,0.139-0.287c-0.2-0.23-0.28-0.019-0.555,0.067  c-0.022-0.103,0.087-0.275,0.014-0.372c-0.057-0.076-0.339-0.049-0.416-0.029c-0.152,0.04-0.239,0.13-0.415,0.113  c-0.134-0.013-0.231-0.099-0.363-0.11v0.028c-0.096-0.144-0.353-0.102-0.408-0.189c-0.048-0.075,0.024-0.204,0.078-0.252  c0.137-0.122,0.085-0.006,0.186-0.026c0.029-0.006,0.129,0.039,0.22,0.008c0.079-0.027,0.105-0.164,0.198-0.176  c0.081-0.01,0.33,0.2,0.429,0.234c0.357,0.12,0.533,0.246,0.864,0.042c0.211-0.129,0.678-0.553,0.908-0.246h0.028  c0.202,0.001,0.398,0.013,0.594,0.014c0.172,0,0.492-0.136,0.604-0.041c0.087-0.186,0.022-0.473,0.141-0.639  c0.3-0.421,0.228,0.234,0.299,0.365c0.067,0.123,0.206,0.117,0.283,0.224c0.091,0.127-0.044,0.244,0.142,0.255  c0.281,0.016,0.3-0.469,0.524-0.533c0.117,0.394,0.514-0.147,0.633-0.224c-0.002,0.259,0.184,0.223,0.382,0.221h0.028  c0.12,0.011,0.289,0.018,0.381-0.059c0.121-0.101-0.018-0.198,0.214-0.271c0.304-0.096,0.641,0.244,0.259,0.246  c0.099,0.232,0.505,0.224,0.714,0.33c0.106-0.209,0.337-0.169,0.539-0.159c0.054,0.196-0.174,0.153-0.236,0.286  c0.134,0.092,0.348,0.133,0.44,0.287c0.123,0.203,0.025,0.266,0.235,0.414c0.262,0.183,0.81,0.099,1.002-0.165l0.028-0.055  c0.149-0.209,0.33-0.091,0.483-0.233c0.174-0.162,0.014-0.236,0.29-0.33c0.479-0.165,0.707-0.014,1.065,0.289  c0.067,0.057,0.142,0.111,0.206,0.163c0.023,0.019,0.222,0.159,0.227,0.165c0.127,0.145,0.104,0.346,0.289,0.504  c0.124,0.106,0.342,0.254,0.487,0.329c0.199,0.103,0.306,0.052,0.46,0.24c0.263,0.321,0.395,0.965,0.371,1.376v0.083  c-0.092,0.139-0.18,0.523-0.187,0.687c-0.013,0.296,0.18,0.405,0.213,0.654c0.127-0.185,0.136-0.293,0.138-0.467  c0.003-0.216-0.096-0.328,0.193-0.242c0.197,0.059,0.29,0.234,0.236,0.426c-0.056,0.197-0.341,0.287-0.371,0.468  c-0.03,0.177,0.212,0.348,0.299,0.492c0.1,0.166,0.167,0.361,0.261,0.538c0.044,0.081,0.239,0.436,0.403,0.329  c0.062-0.04-0.044-0.589,0.221-0.373c0.121,0.099-0.024,0.561,0.025,0.708c0.109,0.326,0.361,0.124,0.466,0.438l0.028,0.028  c-0.019,0.193,0.09,0.299,0.178,0.454c0.084,0.148,0.124,0.373,0.233,0.501c0.133-0.182,0.74,0.007,0.826,0.173  c-0.047,0.021-0.09,0.09-0.13,0.109c0.159,0.172,0.766,0.528,0.762,0.718c-0.116,0.055-0.451-0.177-0.41,0.066  c0.038,0.224,0.348,0.164,0.486,0.145c0.311-0.042,0.968-0.267,1.054-0.609c0.052-0.206-0.082-0.43-0.003-0.646  c0.09-0.244,0.168-0.312,0.167-0.608c-0.001-0.394,0.098-0.778,0.056-1.178c-0.053-0.5-0.426-0.862-0.523-1.326l-0.11-0.083  c-0.358-0.678-0.65-1.353-1.079-2.002c-0.095-0.144-0.219-0.298-0.268-0.472c-0.042-0.148-0.009-0.304-0.054-0.447  c-0.09-0.289-0.418-0.722-0.606-0.957l-0.055-0.055c-0.051-0.598-0.612-1.103-0.713-1.716c-0.09-0.545-0.318-1.075-0.302-1.636  c0.271,0.026,0.225-0.279-0.002-0.311c0.054-0.036,0.19-0.076,0.233-0.123c0.078-0.084-0.046-0.146,0.118-0.223  c-0.023-0.022-0.054-0.045-0.07-0.061c0.051-0.045,0.056-0.022,0.09-0.076c-0.02-0.027-0.063-0.04-0.089-0.06  c0.012-0.021,0.027-0.04,0.045-0.057c-0.037-0.023-0.108-0.125-0.129-0.139c0.15-0.016,0.557-0.153,0.241-0.329H77.32  c0.138-0.041,0.299-0.431,0.357-0.572c0.116-0.278-0.046-0.481-0.025-0.719c0.141,0.034,0.151,0.192,0.297,0.222  c0.055,0.129,0.227,0.074,0.226-0.073c-0.001-0.157-0.218-0.093-0.191-0.279c0.103-0.022,0.177,0.04,0.271,0.031  c0.219-0.021,0.102-0.037,0.257-0.122c0.215-0.117,0.358-0.15,0.568-0.36v0.028c-0.048-0.209,0.303-0.52,0.446-0.659  c0.231-0.227,0.212-0.318,0.568-0.334c0.023-0.179-0.016-0.306-0.103-0.439c0.22-0.04,0.142-0.361,0.236-0.522  c0.094-0.16,0.324-0.343,0.462-0.48c0.358-0.355,0.702-0.22,1.114-0.372h0.055c0.001-0.38,0.114-0.592,0.272-0.908  c0.081-0.161,0.251-0.284,0.333-0.434c0.014-0.025,0.071-0.03,0.086-0.067c0.035-0.086-0.068-0.082-0.055-0.137  c0.021-0.093-0.02-0.158,0.028-0.241c0.106,0.04,0.11,0.215,0.221,0.222c0.084,0.005,0.261-0.248,0.334-0.292  c0.198-0.12,0.501-0.138,0.685-0.315c0.231,0.189,0.455-0.381,0.542-0.527c-0.094-0.025-0.17,0.026-0.221,0.127  c-0.043-0.293-0.304,0.047-0.49,0.08c-0.2,0.036-0.528,0.069-0.65-0.124c0.238-0.112,0.796,0.083,0.711-0.354  c0.073-0.054,0.084-0.136,0.129-0.197c-0.236-0.058-0.706-0.133-0.846-0.352c0.209,0.005,0.426,0.077,0.631,0.104  c-0.026-0.081-0.03-0.196-0.006-0.277c0.091,0.041,0.142,0.122,0.144,0.225c0.181-0.115,0.266,0.008,0.447,0.001  c0.269-0.011,0.299-0.152,0.456-0.33V49.57c0.052-0.219,0.218-0.212,0.275-0.384c0.036-0.109-0.028-0.502-0.143-0.547  c-0.252-0.099-0.435,1.133-0.517,0.397c-0.025-0.221,0.105-0.267-0.181-0.291c-0.212-0.018-0.35,0.131-0.51,0.181  c-0.498,0.155-0.489-0.305-0.462-0.709c0.28-0.01,0.088,0.296,0.205,0.403c0.171,0.156,0.309-0.076,0.348-0.206  c0.05,0.05,0.161,0.093,0.212,0.137c0.037-0.295,0.127-0.229,0.329-0.327c0.02-0.01,0.183-0.085,0.183-0.086  c0.11-0.149-0.009-0.062-0.016-0.163c-0.008-0.117-0.02-0.331-0.05-0.438c-0.005-0.016-0.12-0.046-0.142-0.15  c-0.015-0.072,0.04-0.199,0.056-0.267l-0.048-0.016c-0.002-0.167,0.005-0.188-0.151-0.244c-0.175-0.063-0.243-0.006-0.404,0.043  c-0.324,0.099-0.614-0.027-0.821-0.269v0.034c-0.1-0.06-0.22-0.143-0.329-0.191c-0.119-0.053-0.266-0.008-0.376-0.064  c-0.325-0.166,0.236-0.142,0.348-0.131c0.312,0.033,0.415,0.177,0.649,0.359c0.15,0.117,0.619,0.163,0.437-0.151  c-0.132-0.228-0.527-0.25-0.722-0.375c-0.349-0.225,0.287-0.11,0.396-0.102c0.342,0.025,0.197-0.287-0.05-0.336  c-0.331-0.065-0.492-0.243-0.722-0.487c-0.058-0.061-0.311-0.335-0.138-0.388c0.11-0.033,0.31,0.277,0.376,0.341  c0.087,0.083,0.293,0.248,0.425,0.233c0.205-0.024,0.104-0.248,0.176-0.371v-0.017c-0.062-0.361-0.532-0.312-0.763-0.469  c-0.357-0.243,0.371-0.048,0.463-0.04c0.022-0.27-0.703-0.408-0.541-0.745c0.071,0.056,0.142,0.133,0.235,0.127  c0.006-0.164-0.02-0.292-0.053-0.447c-0.039-0.181,0.043-0.286,0.038-0.457V42.94c0.014-0.133-0.032-0.217-0.088-0.332  c-0.077-0.157-0.089-0.152,0.044-0.286c0.181-0.181,0.367-0.4,0.513-0.607c0.089,0.022,0.198,0.146,0.153,0.239  c-0.035,0.074-0.2,0.11-0.253,0.18c-0.023,0.03-0.187,0.264-0.186,0.286c0.01,0.14,0.157,0.005,0.234,0.001  c0.004,0.102,0.037,0.213,0.037,0.305c0,0.055-0.042,0.082-0.035,0.147c0.007,0.063,0.049,0.076,0.064,0.133  c0.037,0.149-0.002,0.173,0.121,0.269c0.102,0.08,0.228,0.105,0.264,0.253c-0.081,0.043-0.228-0.011-0.29,0.031  c-0.055,0.038-0.065,0.246-0.025,0.32c0.05,0.095,0.121,0.095,0.237,0.1c0.062,0.003,0.23-0.059,0.263-0.048  c0.132,0.047,0.005,0.199,0.004,0.287c-0.002,0.157,0.09,0.093,0.153,0.186c0.133,0.197-0.193,0.457,0.2,0.381l0.017-0.017  c0.134,0.144,0.055,0.177,0.015,0.312c-0.015,0.05,0.002,0.126-0.022,0.171c-0.028,0.053-0.112,0.078-0.146,0.141  c-0.063,0.118-0.094,0.754,0.059,0.81c0.157,0.057,0.11-0.281,0.147-0.374c0.045-0.114,0.138-0.23,0.207-0.329  c0.094-0.135,0.145-0.207,0.18-0.38c0.021-0.107,0.034-0.218,0.062-0.327c0.051-0.197,0.173-0.32,0.186-0.532  c0.004-0.07-0.024-0.181-0.002-0.248c0.025-0.077,0.106-0.119,0.135-0.201l0.017-0.017c-0.013-0.149,0.148-0.302,0.084-0.46  c-0.058-0.142-0.259-0.069-0.233-0.249c0.033-0.223,0.271-0.186-0.04-0.281c-0.147-0.045-0.364-0.175-0.399-0.336h-0.101  c-0.088-0.139-0.152-0.192-0.186-0.361c-0.008-0.037-0.016-0.142-0.032-0.176c-0.038-0.078-0.075-0.068-0.13-0.134  c-0.168-0.202-0.201-0.607-0.003-0.801c0.064,0.193-0.013,0.4,0.086,0.596c0.094,0.184,0.172,0.413,0.369,0.477  c0.081,0.026,0.146,0.028,0.231,0.03c0.065,0.001,0.227-0.052,0.272-0.035c0.129,0.049,0.037,0.338,0.079,0.47  c0.198-0.047,0.333-0.4,0.415-0.571c0.046-0.097,0.066-0.207,0.111-0.3c0.062-0.128,0.172-0.183,0.248-0.302  c0.154-0.24,0.238-0.541,0.252-0.82c0.003-0.053,0.012-0.13,0-0.181c-0.017-0.072-0.062-0.093-0.082-0.154  c-0.031-0.096-0.042-0.238,0.014-0.324v-0.034c0-0.117,0.033-0.304-0.05-0.399c-0.139-0.159-0.307-0.018-0.319-0.288  c-0.012-0.259,0.136-0.33,0.277-0.497c0.109-0.13,0.244-0.316,0.327-0.46l0.034-0.084c0.096-0.155,0.319-0.277,0.471-0.381  c0.208-0.142,0.461-0.255,0.704-0.325c0.196-0.056,0.397-0.091,0.591-0.164c0.224-0.084,0.404-0.232,0.634-0.306l0.084-0.034  c0.105,0.002,0.252-0.068,0.336-0.129c0.133-0.096,0.118-0.162,0.133-0.323c0.016-0.17,0.037-0.573,0.267-0.519  c0.021,0.1,0.056,0.146,0.093,0.224c0.057,0.12,0.039,0.15,0.148,0.113c0.067-0.023,0.18-0.141,0.23-0.19  c0.07-0.068,0.096-0.177,0.176-0.244c0.145-0.123,0.251,0.085,0.191,0.245c-0.065,0.175-0.35,0.193-0.381,0.397  c0.108,0.002,0.235-0.164,0.338-0.217c0.131-0.067,0.232-0.091,0.332-0.206c0.154-0.175,0.354-0.367,0.605-0.392  c0.001,0.04,0.027,0.109,0.031,0.145c0.227-0.235,0.003-0.713-0.197-0.885c-0.046-0.04-0.309-0.229-0.325-0.051  c-0.009,0.1,0.152,0.072,0.193,0.12c0.066,0.076,0.022,0.151,0.042,0.234c0.033,0.133,0.143,0.245-0.018,0.353  c-0.051,0.034-0.327,0.091-0.387,0.064c-0.082-0.037-0.075-0.121-0.113-0.186c-0.048-0.082-0.056-0.094-0.133-0.16  c-0.071-0.061-0.084-0.013-0.131-0.118c-0.021-0.046-0.006-0.12-0.02-0.171v-0.017c-0.066-0.082-0.172-0.152-0.266-0.201  c-0.14-0.074-0.131-0.052-0.275-0.017c-0.151,0.037-0.181,0.035-0.164-0.168c0.019-0.218,0.081-0.14,0.235-0.239  c0.108-0.07,0.107-0.162,0.171-0.264c0.095-0.152,0.164-0.105,0.013-0.201c-0.109-0.069-0.161-0.014-0.205-0.185  c-0.026-0.102,0.029-0.245-0.063-0.318l-0.017-0.05c0.001-0.204,0.067-0.267,0.135-0.436c0.045-0.112-0.002-0.24,0.053-0.357  c0.067-0.143,0.157-0.188,0.181-0.352c0.016-0.109-0.023-0.287,0.018-0.386c0.033-0.079,0.134-0.109,0.18-0.18  c0.038-0.058,0.025-0.151,0.068-0.208c0.045-0.058,0.146-0.068,0.184-0.129c0.037-0.058-0.001-0.124,0.023-0.182  c0.107-0.262,0.118-0.023,0.266,0.027c0.151,0.051,0.208-0.097,0.302-0.182c-0.033-0.182,0.192-0.215,0.287-0.319  c0.101-0.11,0.139-0.267,0.187-0.403c0.059-0.169-0.001-0.172-0.004-0.343c-0.002-0.116,0.088-0.249,0.12-0.362  c0.177,0.03,0.129,0.188,0.164,0.317c0.026,0.096,0.133,0.298,0.27,0.22c0.1-0.057,0.038-0.259,0.05-0.366  c0.026-0.218,0.046-0.097,0.21-0.164c0.134-0.055,0.181-0.224,0.311-0.093c0.041,0.041-0.029,0.158,0.084,0.174  c0.101,0.014,0.034-0.073,0.083-0.124c0.114-0.118,0.131-0.124,0.185-0.285c0.06-0.182,0.084-0.09,0.252-0.151h0.034  c0.08-0.14,0.212-0.357,0.388-0.376c0.041,0.295,0.354-0.217,0.379-0.313c-0.069-0.023-0.195,0.013-0.245-0.049  c-0.038-0.047,0.014-0.185,0.011-0.238c-0.012-0.261-0.126-0.264-0.349-0.257c-0.074,0.002-0.159,0.019-0.222-0.042  c-0.079-0.077-0.026-0.163-0.047-0.266c-0.019-0.096-0.069-0.092-0.114-0.188c-0.041-0.088,0.051-0.18-0.067-0.235  c-0.021-0.001-0.027,0.011-0.019,0.033l-0.168,0.017c-0.269-0.026-0.37-0.115-0.386-0.386c-0.011-0.184-0.016-0.513-0.134-0.654  v0.017c-0.05-0.6-0.385-1.179-0.47-1.779l-0.017,0.017c-0.23-0.105-0.418-0.269-0.634-0.395c-0.266-0.155-0.405,0.002-0.649,0.136  c-0.118,0.065-0.514,0.369-0.645,0.2c-0.067-0.086,0.082-0.244,0.023-0.336c-0.085-0.132-0.228-0.012-0.327,0.009  c-0.035,0.187-0.213,0.427-0.299,0.605c-0.1,0.207-0.205,0.421-0.284,0.637c-0.068,0.185-0.114,0.346-0.105,0.547  c0.011,0.229,0.117,0.401-0.01,0.603c-0.07,0.112-0.191,0.232-0.192,0.376c-0.001,0.13,0.13,0.207,0.118,0.336v0.067  c-0.025,0.023-0.044,0.045-0.05,0.079c0.07-0.017,0.172,0.012,0.185,0.089c0.018,0.104-0.088,0.105-0.12,0.171  c-0.062,0.13-0.037,0.27-0.12,0.399c-0.096,0.149-0.234,0.204-0.188,0.401c0.024,0.105,0.158,0.384-0.104,0.272  c-0.007,0.05,0.023,0.193-0.005,0.233c-0.076,0.109-0.066-0.012-0.162-0.025c-0.21-0.028-0.159,0.198-0.308,0.26  c-0.068,0.029-0.147-0.03-0.21,0.023c-0.049,0.041-0.07,0.2-0.089,0.258c-0.062,0.183-0.096,0.252-0.273,0.339l-0.101,0.05  c-0.272-0.014-0.611,0.054-0.872,0.113c-0.537,0.122-1.071,0.274-1.611,0.357c-0.27,0.042-0.531,0.088-0.799,0.159  c-0.27,0.072-0.596,0.235-0.879,0.21L82.758,30.642z"/><path d="M16.891,74.657c-0.005-0.228,0.138-0.475,0.327-0.622c0.127-0.099,0.64-0.062,0.37-0.281  c0.079-0.033,0.22-0.134,0.241-0.224c0.033-0.144-0.118-0.155-0.049-0.266c-0.001,0.002,0.183-0.093,0.208-0.119  c0.055-0.057,0.086-0.144,0.136-0.206c0.097-0.12,0.21-0.173,0.323-0.258c0.201-0.15,0.268-0.34,0.534-0.406  c0.132-0.033,0.201-0.03,0.327-0.104c0.105-0.061,0.221-0.196,0.343-0.126c-0.022,0.076-0.177,0.189-0.167,0.256  c0.013,0.086,0.217,0.099,0.274,0.163c0.2,0.223-0.059,0.202-0.237,0.21c-0.434,0.02-0.803,0.007-0.897,0.511  c-0.024,0.131-0.04,0.207-0.104,0.311c-0.049,0.08-0.126,0.114-0.16,0.211c-0.062,0.178-0.032,0.301,0.151,0.312  c0.075,0.005,0.096-0.139,0.179-0.056c0.058,0.058-0.014,0.187-0.049,0.23c-0.151,0.182-0.438,0.055-0.463,0.359  c0.174,0.076,0.339-0.087,0.489-0.157c0.136-0.063,0.301-0.065,0.427-0.131c0.238-0.124,0.336-0.252,0.45-0.483  c0.015,0.017,0.029,0.034,0.043,0.052c0.194-0.16,0.264-0.133,0.525-0.137c0.157-0.002,0.516,0.075,0.524-0.16  c-0.214-0.073-0.167-0.132-0.191-0.278c-0.015-0.096,0.057-0.053-0.005-0.151c-0.024-0.038-0.147-0.044-0.188-0.108  c-0.137-0.209,0.115-0.575,0.306-0.644c0.08,0.134-0.019,0.276,0.04,0.398c0.061-0.216,0.216-0.194,0.392-0.283  c0.253-0.127,0.309,0.021,0.145,0.216c0.108,0.011,0.195-0.071,0.303-0.048c-0.011,0.08,0.022,0.117,0.088,0.161h0.021  c0.056,0,0.16-0.02,0.211,0c0.158,0.062,0.055,0.019,0.068,0.153c0.011,0.115-0.085,0.092,0.016,0.196  c0.055,0.057,0.157,0.065,0.229,0.049c-0.013-0.176,0.09-0.46,0.317-0.39c0.004,0.085-0.038,0.248-0.019,0.319  c0.039,0.146,0.048,0.079,0.17,0.152c0.257,0.154,0.32,0.178,0.62,0.121c0.355-0.068,0.826-0.069,1.189-0.023  c-0.027,0.126,0.054,0.172,0.171,0.14h0.021c0.135-0.005,0.292,0.052,0.422,0.023c0.2-0.045,0.219-0.152,0.299-0.28  c0.282-0.45,0.166,0.313,0.128,0.49c0.485,0.279,1.01,0.453,1.447,0.821l-0.021,0.084c0.198,0,0.391,0.011,0.573,0.038  c0.257,0.038,0.416-0.075,0.165-0.27c-0.101-0.078-0.625-0.178-0.412-0.315c0.056-0.036,0.221,0.009,0.29-0.001  c0.186-0.026,0.157-0.107,0.275,0.063c0.082,0.119,0.189,0.546,0.411,0.508c0.217-0.038,0.048-0.47-0.025-0.572  c-0.04-0.056-0.487-0.614-0.081-0.444c0.119,0.05,0.082,0.202,0.149,0.297c0.037,0.052,0.125,0.058,0.167,0.109  c0.059,0.072,0.053,0.139,0.093,0.212c0.096,0.175,0.109,0.195,0.318,0.164c0.192-0.029,0.139-0.058,0.262,0.067  c0.118,0.121,0.191,0.233,0.343,0.336c0.117,0.079,0.276,0.149,0.37,0.25c-0.24,0.046-0.208,0.042-0.138,0.272  c0.073,0.239,0.01,0.258,0.227,0.364c0.143,0.07,0.334,0.125,0.465,0.21c0.137,0.089,0.364,0.227,0.468,0.354l0.021,0.021  c0.214,0.006,0.023,0.697,0.211,0.842c0.074-0.062,0.175-0.586,0.34-0.336c0.087,0.132-0.1,0.478-0.127,0.608  c0.065-0.002,0.121-0.071,0.176-0.071c0.047-0.001,0.112,0.086,0.139,0.078c0.102-0.03,0.189-0.149,0.19-0.251  c0.001-0.134-0.383-0.491-0.144-0.512c0.474-0.042,0.083,0.95,0.358,1.097c0.36,0.193,0.436-0.903,0.329-1.139  c-0.046-0.103-0.12-0.203-0.164-0.3c-0.07-0.152-0.031-0.147-0.211-0.184c-0.262-0.055-0.523-0.078-0.776-0.19  c-0.28-0.124-0.449-0.273-0.651-0.51c-0.124-0.146-0.25-0.482-0.49-0.565l-0.021,0.021c-0.188-0.264-0.436-0.468-0.664-0.695  c-0.104-0.103-0.185-0.279-0.295-0.362c-0.109-0.082-0.241-0.046-0.359-0.114c-0.257-0.147-0.416-0.397-0.621-0.599  c-0.119-0.117-0.199-0.193-0.359-0.101c-0.072,0.042-0.281,0.234-0.329,0.3c-0.085,0.117-0.017,0.268-0.132,0.389  c-0.067,0.07-0.138,0.062-0.217,0.12c-0.089,0.066-0.114,0.176-0.224,0.216c0-0.241-0.138-0.262-0.277-0.42l-0.084-0.021  c-0.156-0.131-0.282-0.295-0.444-0.421c-0.056-0.043-0.211-0.104-0.253-0.156c-0.069-0.087-0.003-0.181-0.053-0.266  c-0.164-0.284-0.33-0.017-0.485,0.075c-0.169,0.1-0.403,0.074-0.599,0.074l-1.58-10.555c-0.132-0.095-0.304-0.059-0.451-0.105  c-0.168-0.052-0.249-0.228-0.402-0.273c-0.247-0.074-0.508,0.189-0.78,0.126c-0.13-0.03-0.204-0.136-0.321-0.17  c-0.115-0.033-0.266,0.011-0.385,0c-0.122-0.011-0.273-0.035-0.378-0.103c-0.13-0.084-0.136-0.126-0.3-0.15  c-0.267-0.038-0.502-0.021-0.775-0.021h-0.042c-0.234,0-0.493,0.051-0.611-0.19c-0.124-0.253,0.02-0.383-0.33-0.341  c-0.112,0.013-0.265,0.037-0.375,0.025c-0.245-0.029-0.082-0.053-0.179-0.188c-0.245-0.342-0.258,0.24-0.504,0.106  c0.007-0.11,0.14-0.211,0.102-0.329c-0.009-0.029-0.219-0.203-0.241-0.211c-0.212-0.081-0.308,0.3-0.538,0.397  c-0.199,0.084-0.436-0.032-0.63,0.04c-0.226,0.083-0.184,0.346-0.265,0.539c-0.072-0.091-0.07-0.223-0.093-0.33  c-0.259,0.043-0.351,0.39-0.676,0.335v-0.105c-0.43-0.102-0.655,1.173-1.048,1.312c-0.202,0.071-0.55,0.025-0.76-0.005  c-0.143-0.021-0.195-0.082-0.307,0.022c-0.115,0.106-0.078,0.302-0.237,0.399c0.222,0.242,0.48,0.507,0.671,0.774  c0.214,0.298,0.145,0.54,0.144,0.89l0.084,0.021c0.062,0.086,0.248,0.173,0.347,0.22c0.143,0.069,0.337,0.043,0.474,0.136  c-0.066,0.242-0.111,0.43,0.172,0.486c0.111,0.022,0.308-0.063,0.362,0.067c0.08,0.193-0.159,0.178-0.24,0.191  c-0.042,0.007-0.106-0.022-0.147-0.006c-0.035,0.014-0.046,0.079-0.062,0.085c-0.002,0.001-0.05,0.053-0.063,0.06  c-0.015,0.007-0.111-0.026-0.143-0.014c-0.209,0.076-0.265,0.145-0.506,0.082c-0.152-0.039-0.497-0.123-0.53-0.306  c-0.046-0.261,0.294-0.287-0.064-0.369c-0.172-0.04-0.409-0.075-0.589-0.042c-0.17,0.031-0.128,0.095-0.253,0.185  c-0.167,0.121-0.031,0.012-0.162,0c-0.106-0.01-0.085-0.053-0.233,0.031c-0.088,0.05-0.164,0.085-0.249,0.122  c-0.11,0.048-0.491,0.147-0.54,0.253c0.166,0.164,0.325,0.331,0.552,0.421h0.021c0.456,0.307-0.154,0.102-0.191,0.274  c-0.018,0.084,0.112,0.251,0.128,0.337c0.018,0.099-0.02,0.198,0.024,0.296c0.285,0.634,1.065,0.099,1.429,0.461  c0.174-0.12,0.093,0.145,0.19,0.212c0.081-0.121,0.15-0.262,0.296-0.318c0.14-0.054,0.31,0.028,0.447-0.019  c0.117-0.04,0.172-0.217,0.312-0.087c0.138,0.128-0.002,0.295-0.122,0.357c-0.148,0.077-0.261-0.03-0.143,0.161  c0.043,0.07,0.247,0.158,0.261,0.241c0.017,0.104-0.32,0.736-0.398,0.738h-0.021c-0.197,0.126-0.306-0.01-0.492,0.001  c-0.217,0.013-0.222,0.252-0.413,0.337c-0.389,0.175-0.449-0.457-0.77-0.296c-0.067,0.034-0.212,0.266-0.263,0.336  c-0.087,0.119-0.104,0.235-0.198,0.327c-0.108,0.106-0.283,0.161-0.394,0.268c-0.09,0.087-0.176,0.256-0.23,0.331  c-0.068,0.095-0.556,0.544-0.109,0.552c0.004,0.031,0.009,0.071,0.003,0.103l-0.021,0.084c-0.209,0.322,0.501,0.12,0.318,0.397  c0.172,0.068,0.467,0.142,0.619,0.267c0.239,0.196-0.182,0.474-0.239,0.16c-0.259,0.136-0.229-0.188-0.449-0.208  c-0.238-0.022-0.459,0.305-0.133,0.384c-0.062,0.273,0.191,0.28,0.329,0.475c0.146,0.206,0.029,0.379,0.331,0.396  c0.159,0.009,0.508,0.008,0.622-0.108c0.141-0.143,0.158-0.415,0.327-0.561c0.027,0.227-0.193,0.414-0.166,0.652  c0.026,0.231,0.147,0.381,0.148,0.632c-0.063,0.056-0.187,0.08-0.213,0.172c-0.039,0.14,0.162,0.204,0.161,0.3  c-0.001,0.06-0.095,0.122-0.138,0.16c0.001-0.001-0.163,0.172-0.158,0.157c-0.072,0.198,0.197,0.237,0.343,0.182  c0.106-0.04,0.107-0.152,0.204-0.19c0.055-0.022,0.159,0.019,0.221,0.02l0.021,0.021c0.194-0.055,0.201-0.288,0.39-0.08  c0.103,0.114,0.095,0.378,0.297,0.164c0.026,0.107,0.114,0.149,0.152,0.233c0.027,0.059,0.018,0.162,0.045,0.21  c0.087,0.153,0.185,0.182,0.254,0.006c0.063-0.161-0.057-0.318,0.063-0.47c0.094-0.118,0.288-0.168,0.359,0.004  c-0.287,0.036-0.136,0.364,0.083,0.378C14.83,74.905,15,74.7,15.23,74.658c0.12,0.265-0.313,0.417-0.377,0.632  c-0.037,0.122-0.005,0.256-0.062,0.357c-0.069,0.124-0.169,0.146-0.196,0.306c-0.015,0.091,0.038,0.239-0.022,0.317  c-0.056,0.073-0.252,0.094-0.335,0.131c-0.235,0.106-0.316,0.404-0.549,0.468l-0.042,0.084c-0.252,0.087-0.482,0.207-0.706,0.348  c-0.092,0.058-0.283,0.117-0.349,0.2c-0.083,0.105-0.003,0.244-0.082,0.352c-0.112-0.092-0.151,0.071-0.249,0.024  c-0.093-0.045-0.025-0.137-0.139-0.188c-0.128-0.057-0.401,0.051-0.523,0.091c-0.153,0.05-0.407,0.133-0.477,0.305  c-0.055,0.135,0.017,0.387,0.018,0.532h0.063c0.084-0.071,0.232-0.095,0.297-0.151c0.078-0.067,0.074-0.184,0.134-0.258  c0.147-0.183,0.418-0.181,0.25,0.097c0.121,0,0.197-0.098,0.309-0.126c0.085-0.021,0.193-0.004,0.281-0.004  c0.226-0.002,0.353-0.089,0.562-0.147c0.219-0.061,0.438-0.033,0.622-0.114c0.141-0.063,0.551-0.226,0.259-0.392  c0.09-0.063,0.321-0.196,0.436-0.231c0.067-0.021,0.164,0.023,0.214-0.001c0.098-0.047,0.042-0.138,0.155-0.168h0.021  c0.206-0.002,0.573-0.239,0.644-0.435c0.044-0.121-0.028-0.238,0.078-0.325c0.027-0.023,0.142,0.001,0.185-0.02  c0.071-0.033,0.124-0.131,0.189-0.179c0.123-0.089,0.242-0.161,0.36-0.255c0.156-0.123,0.275-0.059,0.436-0.156  c0.128-0.077,0.154-0.233,0.267-0.327c0.129-0.106,0.251-0.122,0.36-0.273c0.234-0.327,0.1-0.499-0.265-0.517L16.891,74.657z"/><text x="0" y="115" fill="#000000" font-size="5px" font-weight="bold" font-family="'Helvetica Neue', Helvetica, Arial-Unicode, Arial, Sans-serif">Created by Bence Bezeredy</text><text x="0" y="120" fill="#000000" font-size="5px" font-weight="bold" font-family="'Helvetica Neue', Helvetica, Arial-Unicode, Arial, Sans-serif">from the Noun Project</text></svg>